<?xml version="1.0" encoding="UTF-8" standalone="no"?><svg xmlns="http://www.w3.org/2000/svg" xmlns:xlink="http://www.w3.org/1999/xlink" contentStyleType="text/css" height="1051px" preserveAspectRatio="none" style="width:1215px;height:1051px;background:#FFFFFF;" version="1.1" viewBox="0 0 1215 1051" width="1215px" zoomAndPan="magnify"><defs/><g><!--MD5=[664fdbb09ffd9010ac20dfdad6379a97]
cluster nz.ac.vuw.ecs.swen225.gp22.renderer--><g id="cluster_nz.ac.vuw.ecs.swen225.gp22.renderer"><path d="M8.5,148 L277.5,148 A3.75,3.75 0 0 1 280,150.5 L287,171.6094 L1205.5,171.6094 A2.5,2.5 0 0 1 1208,174.1094 L1208,1022.5 A2.5,2.5 0 0 1 1205.5,1025 L8.5,1025 A2.5,2.5 0 0 1 6,1022.5 L6,150.5 A2.5,2.5 0 0 1 8.5,148 " fill="none" style="stroke:#000000;stroke-width:1.5;"/><line style="stroke:#000000;stroke-width:1.5;" x1="6" x2="287" y1="171.6094" y2="171.6094"/><text fill="#000000" font-family="sans-serif" font-size="14" font-weight="bold" lengthAdjust="spacing" textLength="268" x="10" y="164.5332">nz.ac.vuw.ecs.swen225.gp22.renderer</text></g><!--MD5=[491d687ecfafed1adc87dc26d19d521b]
cluster javax.sound.sampled--><g id="cluster_javax.sound.sampled"><path d="M13.5,6 L162.5,6 A3.75,3.75 0 0 1 165,8.5 L172,29.6094 L216.5,29.6094 A2.5,2.5 0 0 1 219,32.1094 L219,121.5 A2.5,2.5 0 0 1 216.5,124 L13.5,124 A2.5,2.5 0 0 1 11,121.5 L11,8.5 A2.5,2.5 0 0 1 13.5,6 " fill="none" style="stroke:#000000;stroke-width:1.5;"/><line style="stroke:#000000;stroke-width:1.5;" x1="11" x2="172" y1="29.6094" y2="29.6094"/><text fill="#000000" font-family="sans-serif" font-size="14" font-weight="bold" lengthAdjust="spacing" textLength="148" x="15" y="22.5332">javax.sound.sampled</text></g><!--MD5=[535aab4de90d4dfa371a9b40d5438fc3]
cluster javax.swing--><g id="cluster_javax.swing"><path d="M336.5,15 L419.5,15 A3.75,3.75 0 0 1 422,17.5 L429,38.6094 L437.5,38.6094 A2.5,2.5 0 0 1 440,41.1094 L440,112.5 A2.5,2.5 0 0 1 437.5,115 L336.5,115 A2.5,2.5 0 0 1 334,112.5 L334,17.5 A2.5,2.5 0 0 1 336.5,15 " fill="none" style="stroke:#000000;stroke-width:1.5;"/><line style="stroke:#000000;stroke-width:1.5;" x1="334" x2="429" y1="38.6094" y2="38.6094"/><text fill="#000000" font-family="sans-serif" font-size="14" font-weight="bold" lengthAdjust="spacing" textLength="82" x="338" y="31.5332">javax.swing</text></g><!--MD5=[d63c23c2d4b14118d71bd46d55a646bd]
cluster java.awt.event--><g id="cluster_java.awt.event"><path d="M504.5,6 L607.5,6 A3.75,3.75 0 0 1 610,8.5 L617,29.6094 L779.5,29.6094 A2.5,2.5 0 0 1 782,32.1094 L782,121.5 A2.5,2.5 0 0 1 779.5,124 L504.5,124 A2.5,2.5 0 0 1 502,121.5 L502,8.5 A2.5,2.5 0 0 1 504.5,6 " fill="none" style="stroke:#000000;stroke-width:1.5;"/><line style="stroke:#000000;stroke-width:1.5;" x1="502" x2="617" y1="29.6094" y2="29.6094"/><text fill="#000000" font-family="sans-serif" font-size="14" font-weight="bold" lengthAdjust="spacing" textLength="102" x="506" y="22.5332">java.awt.event</text></g><!--MD5=[80df190719ab852e82981afdc9475ccb]
class nz.ac.vuw.ecs.swen225.gp22.renderer.Img--><a href="Img.html" target="_top" title="Img.html" xlink:actuate="onRequest" xlink:href="Img.html" xlink:show="new" xlink:title="Img.html" xlink:type="simple"><g id="elem_nz.ac.vuw.ecs.swen225.gp22.renderer.Img"><rect codeLine="3" fill="#F1F1F1" height="593.8906" id="nz.ac.vuw.ecs.swen225.gp22.renderer.Img" rx="2.5" ry="2.5" style="stroke:#181818;stroke-width:0.5;" width="164" x="1028" y="184"/><ellipse cx="1094.75" cy="200" fill="#EB937F" rx="11" ry="11" style="stroke:#181818;stroke-width:1.0;"/><path d="M1093.6094,200.7969 L1093.6094,203.2969 L1097.9375,203.2969 L1097.9375,202.375 Q1097.9375,201.7656 1098.1719,201.5 Q1098.4219,201.2344 1098.7969,201.2344 Q1099.1719,201.2344 1099.4063,201.5 Q1099.6406,201.7656 1099.6406,202.375 L1099.6406,205 L1091.6406,205 Q1091.0156,205 1090.75,204.7656 Q1090.5,204.5313 1090.5,204.1406 Q1090.5,203.7656 1090.7656,203.5313 Q1091.0313,203.2969 1091.6406,203.2969 L1091.9063,203.2969 L1091.9063,196.6406 L1091.6406,196.6406 Q1091.0156,196.6406 1090.75,196.4063 Q1090.5,196.1719 1090.5,195.7813 Q1090.5,195.4063 1090.75,195.1719 Q1091.0156,194.9375 1091.6406,194.9375 L1099.2656,194.9375 L1099.2656,197.5313 Q1099.2656,198.1406 1099.0313,198.4063 Q1098.8125,198.6563 1098.4219,198.6563 Q1098.0469,198.6563 1097.8125,198.4063 Q1097.5781,198.1406 1097.5781,197.5313 L1097.5781,196.6406 L1093.6094,196.6406 L1093.6094,199.0938 L1095.0938,199.0938 Q1095.0938,198.4375 1095.2188,198.25 Q1095.4844,197.8438 1095.9531,197.8438 Q1096.3281,197.8438 1096.5625,198.1094 Q1096.7969,198.3594 1096.7969,198.9688 L1096.7969,200.9375 Q1096.7969,201.4844 1096.6719,201.6719 Q1096.4063,202.0625 1095.9531,202.0625 Q1095.4844,202.0625 1095.2188,201.6563 Q1095.0938,201.4688 1095.0938,200.7969 L1093.6094,200.7969 Z " fill="#000000"/><text fill="#000000" font-family="sans-serif" font-size="14" lengthAdjust="spacing" textLength="22" x="1115.25" y="205.7285">Img</text><line style="stroke:#181818;stroke-width:0.5;" x1="1029" x2="1191" y1="216" y2="216"/><ellipse cx="1039" cy="230.3047" fill="none" rx="3" ry="3" style="stroke:#038048;stroke-width:1.0;"/><text fill="#000000" font-family="sans-serif" font-size="14" lengthAdjust="spacing" text-decoration="underline" textLength="27" x="1048" y="234.5332">Title</text><ellipse cx="1039" cy="247.9141" fill="none" rx="3" ry="3" style="stroke:#038048;stroke-width:1.0;"/><text fill="#000000" font-family="sans-serif" font-size="14" lengthAdjust="spacing" text-decoration="underline" textLength="52" x="1048" y="252.1426">BlueKey</text><ellipse cx="1039" cy="265.5234" fill="none" rx="3" ry="3" style="stroke:#038048;stroke-width:1.0;"/><text fill="#000000" font-family="sans-serif" font-size="14" lengthAdjust="spacing" text-decoration="underline" textLength="105" x="1048" y="269.752">BlueLockedDoor</text><ellipse cx="1039" cy="283.1328" fill="none" rx="3" ry="3" style="stroke:#038048;stroke-width:1.0;"/><text fill="#000000" font-family="sans-serif" font-size="14" lengthAdjust="spacing" text-decoration="underline" textLength="64" x="1048" y="287.3613">GreenKey</text><ellipse cx="1039" cy="300.7422" fill="none" rx="3" ry="3" style="stroke:#038048;stroke-width:1.0;"/><text fill="#000000" font-family="sans-serif" font-size="14" lengthAdjust="spacing" text-decoration="underline" textLength="117" x="1048" y="304.9707">GreenLockedDoor</text><ellipse cx="1039" cy="318.3516" fill="none" rx="3" ry="3" style="stroke:#038048;stroke-width:1.0;"/><text fill="#000000" font-family="sans-serif" font-size="14" lengthAdjust="spacing" text-decoration="underline" textLength="50" x="1048" y="322.5801">RedKey</text><ellipse cx="1039" cy="335.9609" fill="none" rx="3" ry="3" style="stroke:#038048;stroke-width:1.0;"/><text fill="#000000" font-family="sans-serif" font-size="14" lengthAdjust="spacing" text-decoration="underline" textLength="103" x="1048" y="340.1895">RedLockedDoor</text><ellipse cx="1039" cy="353.5703" fill="none" rx="3" ry="3" style="stroke:#038048;stroke-width:1.0;"/><text fill="#000000" font-family="sans-serif" font-size="14" lengthAdjust="spacing" text-decoration="underline" textLength="64" x="1048" y="357.7988">YellowKey</text><ellipse cx="1039" cy="371.1797" fill="none" rx="3" ry="3" style="stroke:#038048;stroke-width:1.0;"/><text fill="#000000" font-family="sans-serif" font-size="14" lengthAdjust="spacing" text-decoration="underline" textLength="117" x="1048" y="375.4082">YellowLockedDoor</text><ellipse cx="1039" cy="388.7891" fill="none" rx="3" ry="3" style="stroke:#038048;stroke-width:1.0;"/><text fill="#000000" font-family="sans-serif" font-size="14" lengthAdjust="spacing" text-decoration="underline" textLength="53" x="1048" y="393.0176">FreeTile</text><ellipse cx="1039" cy="406.3984" fill="none" rx="3" ry="3" style="stroke:#038048;stroke-width:1.0;"/><text fill="#000000" font-family="sans-serif" font-size="14" lengthAdjust="spacing" text-decoration="underline" textLength="22" x="1048" y="410.627">Exit</text><ellipse cx="1039" cy="424.0078" fill="none" rx="3" ry="3" style="stroke:#038048;stroke-width:1.0;"/><text fill="#000000" font-family="sans-serif" font-size="14" lengthAdjust="spacing" text-decoration="underline" textLength="68" x="1048" y="428.2363">LockedExit</text><ellipse cx="1039" cy="441.6172" fill="none" rx="3" ry="3" style="stroke:#038048;stroke-width:1.0;"/><text fill="#000000" font-family="sans-serif" font-size="14" lengthAdjust="spacing" text-decoration="underline" textLength="54" x="1048" y="445.8457">InfoField</text><ellipse cx="1039" cy="459.2266" fill="none" rx="3" ry="3" style="stroke:#038048;stroke-width:1.0;"/><text fill="#000000" font-family="sans-serif" font-size="14" lengthAdjust="spacing" text-decoration="underline" textLength="65" x="1048" y="463.4551">Level1Info</text><ellipse cx="1039" cy="476.8359" fill="none" rx="3" ry="3" style="stroke:#038048;stroke-width:1.0;"/><text fill="#000000" font-family="sans-serif" font-size="14" lengthAdjust="spacing" text-decoration="underline" textLength="75" x="1048" y="481.0645">PlayerDown</text><ellipse cx="1039" cy="494.4453" fill="none" rx="3" ry="3" style="stroke:#038048;stroke-width:1.0;"/><text fill="#000000" font-family="sans-serif" font-size="14" lengthAdjust="spacing" text-decoration="underline" textLength="64" x="1048" y="498.6738">PlayerLeft</text><ellipse cx="1039" cy="512.0547" fill="none" rx="3" ry="3" style="stroke:#038048;stroke-width:1.0;"/><text fill="#000000" font-family="sans-serif" font-size="14" lengthAdjust="spacing" text-decoration="underline" textLength="73" x="1048" y="516.2832">PlayerRight</text><ellipse cx="1039" cy="529.6641" fill="none" rx="3" ry="3" style="stroke:#038048;stroke-width:1.0;"/><text fill="#000000" font-family="sans-serif" font-size="14" lengthAdjust="spacing" text-decoration="underline" textLength="57" x="1048" y="533.8926">PlayerUp</text><ellipse cx="1039" cy="547.2734" fill="none" rx="3" ry="3" style="stroke:#038048;stroke-width:1.0;"/><text fill="#000000" font-family="sans-serif" font-size="14" lengthAdjust="spacing" text-decoration="underline" textLength="58" x="1048" y="551.502">Treasure</text><ellipse cx="1039" cy="564.8828" fill="none" rx="3" ry="3" style="stroke:#038048;stroke-width:1.0;"/><text fill="#000000" font-family="sans-serif" font-size="14" lengthAdjust="spacing" text-decoration="underline" textLength="27" x="1048" y="569.1113">Wall</text><ellipse cx="1039" cy="582.4922" fill="none" rx="3" ry="3" style="stroke:#038048;stroke-width:1.0;"/><text fill="#000000" font-family="sans-serif" font-size="14" lengthAdjust="spacing" text-decoration="underline" textLength="70" x="1048" y="586.7207">BlueKeyNB</text><ellipse cx="1039" cy="600.1016" fill="none" rx="3" ry="3" style="stroke:#038048;stroke-width:1.0;"/><text fill="#000000" font-family="sans-serif" font-size="14" lengthAdjust="spacing" text-decoration="underline" textLength="82" x="1048" y="604.3301">GreenKeyNB</text><ellipse cx="1039" cy="617.7109" fill="none" rx="3" ry="3" style="stroke:#038048;stroke-width:1.0;"/><text fill="#000000" font-family="sans-serif" font-size="14" lengthAdjust="spacing" text-decoration="underline" textLength="68" x="1048" y="621.9395">RedKeyNB</text><ellipse cx="1039" cy="635.3203" fill="none" rx="3" ry="3" style="stroke:#038048;stroke-width:1.0;"/><text fill="#000000" font-family="sans-serif" font-size="14" lengthAdjust="spacing" text-decoration="underline" textLength="82" x="1048" y="639.5488">YellowKeyNB</text><ellipse cx="1039" cy="652.9297" fill="none" rx="3" ry="3" style="stroke:#038048;stroke-width:1.0;"/><text fill="#000000" font-family="sans-serif" font-size="14" lengthAdjust="spacing" text-decoration="underline" textLength="107" x="1048" y="657.1582">BouncyPadDown</text><ellipse cx="1039" cy="670.5391" fill="none" rx="3" ry="3" style="stroke:#038048;stroke-width:1.0;"/><text fill="#000000" font-family="sans-serif" font-size="14" lengthAdjust="spacing" text-decoration="underline" textLength="96" x="1048" y="674.7676">BouncyPadLeft</text><ellipse cx="1039" cy="688.1484" fill="none" rx="3" ry="3" style="stroke:#038048;stroke-width:1.0;"/><text fill="#000000" font-family="sans-serif" font-size="14" lengthAdjust="spacing" text-decoration="underline" textLength="105" x="1048" y="692.377">BouncyPadRight</text><ellipse cx="1039" cy="705.7578" fill="none" rx="3" ry="3" style="stroke:#038048;stroke-width:1.0;"/><text fill="#000000" font-family="sans-serif" font-size="14" lengthAdjust="spacing" text-decoration="underline" textLength="89" x="1048" y="709.9863">BouncyPadUp</text><ellipse cx="1039" cy="723.3672" fill="none" rx="3" ry="3" style="stroke:#038048;stroke-width:1.0;"/><text fill="#000000" font-family="sans-serif" font-size="14" lengthAdjust="spacing" text-decoration="underline" textLength="65" x="1048" y="727.5957">Level2Info</text><ellipse cx="1039" cy="740.9766" fill="none" rx="3" ry="3" style="stroke:#038048;stroke-width:1.0;"/><text fill="#000000" font-family="sans-serif" font-size="14" lengthAdjust="spacing" text-decoration="underline" textLength="68" x="1048" y="745.2051">MilkPuddle</text><ellipse cx="1039" cy="758.5859" fill="none" rx="3" ry="3" style="stroke:#038048;stroke-width:1.0;"/><text fill="#000000" font-family="sans-serif" font-size="14" lengthAdjust="spacing" textLength="138" x="1048" y="762.8145">image: BufferedImage</text><line style="stroke:#181818;stroke-width:0.5;" x1="1029" x2="1191" y1="769.8906" y2="769.8906"/></g></a><!--MD5=[3bfd096fb60da57362b572e9c7c3a168]
class nz.ac.vuw.ecs.swen225.gp22.renderer.SFX--><a href="SFX.html" target="_top" title="SFX.html" xlink:actuate="onRequest" xlink:href="SFX.html" xlink:show="new" xlink:title="SFX.html" xlink:type="simple"><g id="elem_nz.ac.vuw.ecs.swen225.gp22.renderer.SFX"><rect codeLine="37" fill="#F1F1F1" height="100.8281" id="nz.ac.vuw.ecs.swen225.gp22.renderer.SFX" rx="2.5" ry="2.5" style="stroke:#181818;stroke-width:0.5;" width="161" x="831.5" y="430.5"/><ellipse cx="894.75" cy="446.5" fill="#ADD1B2" rx="11" ry="11" style="stroke:#181818;stroke-width:1.0;"/><path d="M897.5156,442.375 Q897.6719,442.1563 897.8594,442.0469 Q898.0469,441.9375 898.2656,441.9375 Q898.6406,441.9375 898.875,442.2031 Q899.1094,442.4531 899.1094,443.0625 L899.1094,444.5156 Q899.1094,445.125 898.875,445.3906 Q898.6406,445.6563 898.2656,445.6563 Q897.9219,445.6563 897.7188,445.4531 Q897.5156,445.2656 897.4063,444.75 Q897.3594,444.3906 897.1719,444.2031 Q896.8438,443.8281 896.2344,443.6094 Q895.625,443.3906 895,443.3906 Q894.2344,443.3906 893.5938,443.7188 Q892.9688,444.0469 892.4688,444.7969 Q891.9844,445.5469 891.9844,446.5781 L891.9844,447.6719 Q891.9844,448.9063 892.875,449.7344 Q893.7656,450.5469 895.3594,450.5469 Q896.2969,450.5469 896.9531,450.2969 Q897.3438,450.1406 897.7656,449.7031 Q898.0313,449.4375 898.1719,449.3594 Q898.3281,449.2813 898.5313,449.2813 Q898.8594,449.2813 899.1094,449.5469 Q899.375,449.7969 899.375,450.1406 Q899.375,450.4844 899.0313,450.8906 Q898.5313,451.4688 897.7344,451.7969 Q896.6563,452.25 895.3594,452.25 Q893.8438,452.25 892.6406,451.625 Q891.6563,451.125 890.9688,450.0625 Q890.2813,448.9844 890.2813,447.7031 L890.2813,446.5469 Q890.2813,445.2188 890.8906,444.0781 Q891.5156,442.9219 892.6094,442.3125 Q893.7031,441.6875 894.9375,441.6875 Q895.6719,441.6875 896.3125,441.8594 Q896.9688,442.0156 897.5156,442.375 Z " fill="#000000"/><text fill="#000000" font-family="sans-serif" font-size="14" lengthAdjust="spacing" textLength="26" x="915.25" y="452.2285">SFX</text><line style="stroke:#181818;stroke-width:0.5;" x1="832.5" x2="991.5" y1="462.5" y2="462.5"/><line style="stroke:#181818;stroke-width:0.5;" x1="832.5" x2="991.5" y1="470.5" y2="470.5"/><ellipse cx="842.5" cy="484.8047" fill="#84BE84" rx="3" ry="3" style="stroke:#038048;stroke-width:1.0;"/><text fill="#000000" font-family="sans-serif" font-size="14" lengthAdjust="spacing" textLength="73" x="851.5" y="489.0332">SFX(String)</text><ellipse cx="842.5" cy="502.4141" fill="#84BE84" rx="3" ry="3" style="stroke:#038048;stroke-width:1.0;"/><text fill="#000000" font-family="sans-serif" font-size="14" lengthAdjust="spacing" textLength="86" x="851.5" y="506.6426">getClip(): Clip</text><ellipse cx="842.5" cy="520.0234" fill="#84BE84" rx="3" ry="3" style="stroke:#038048;stroke-width:1.0;"/><text fill="#000000" font-family="sans-serif" font-size="14" lengthAdjust="spacing" textLength="135" x="851.5" y="524.252">getClipName(): String</text></g></a><!--MD5=[0ca9ba556071b9ec09411eddedb0fb25]
class nz.ac.vuw.ecs.swen225.gp22.renderer.SFX.Sounds--><a href="SFX.Sounds.html" target="_top" title="SFX.Sounds.html" xlink:actuate="onRequest" xlink:href="SFX.Sounds.html" xlink:show="new" xlink:title="SFX.Sounds.html" xlink:type="simple"><g id="elem_nz.ac.vuw.ecs.swen225.gp22.renderer.SFX.Sounds"><rect codeLine="43" fill="#F1F1F1" height="171.2656" id="nz.ac.vuw.ecs.swen225.gp22.renderer.SFX.Sounds" rx="2.5" ry="2.5" style="stroke:#181818;stroke-width:0.5;" width="110" x="857" y="838"/><ellipse cx="872" cy="854" fill="#EB937F" rx="11" ry="11" style="stroke:#181818;stroke-width:1.0;"/><path d="M870.8594,854.7969 L870.8594,857.2969 L875.1875,857.2969 L875.1875,856.375 Q875.1875,855.7656 875.4219,855.5 Q875.6719,855.2344 876.0469,855.2344 Q876.4219,855.2344 876.6563,855.5 Q876.8906,855.7656 876.8906,856.375 L876.8906,859 L868.8906,859 Q868.2656,859 868,858.7656 Q867.75,858.5313 867.75,858.1406 Q867.75,857.7656 868.0156,857.5313 Q868.2813,857.2969 868.8906,857.2969 L869.1563,857.2969 L869.1563,850.6406 L868.8906,850.6406 Q868.2656,850.6406 868,850.4063 Q867.75,850.1719 867.75,849.7813 Q867.75,849.4063 868,849.1719 Q868.2656,848.9375 868.8906,848.9375 L876.5156,848.9375 L876.5156,851.5313 Q876.5156,852.1406 876.2813,852.4063 Q876.0625,852.6563 875.6719,852.6563 Q875.2969,852.6563 875.0625,852.4063 Q874.8281,852.1406 874.8281,851.5313 L874.8281,850.6406 L870.8594,850.6406 L870.8594,853.0938 L872.3438,853.0938 Q872.3438,852.4375 872.4688,852.25 Q872.7344,851.8438 873.2031,851.8438 Q873.5781,851.8438 873.8125,852.1094 Q874.0469,852.3594 874.0469,852.9688 L874.0469,854.9375 Q874.0469,855.4844 873.9219,855.6719 Q873.6563,856.0625 873.2031,856.0625 Q872.7344,856.0625 872.4688,855.6563 Q872.3438,855.4688 872.3438,854.7969 L870.8594,854.7969 Z " fill="#000000"/><text fill="#000000" font-family="sans-serif" font-size="14" lengthAdjust="spacing" textLength="78" x="886" y="859.7285">SFX.Sounds</text><line style="stroke:#181818;stroke-width:0.5;" x1="858" x2="966" y1="870" y2="870"/><ellipse cx="868" cy="884.3047" fill="none" rx="3" ry="3" style="stroke:#038048;stroke-width:1.0;"/><text fill="#000000" font-family="sans-serif" font-size="14" lengthAdjust="spacing" text-decoration="underline" textLength="76" x="877" y="888.5332">Background</text><ellipse cx="868" cy="901.9141" fill="none" rx="3" ry="3" style="stroke:#038048;stroke-width:1.0;"/><text fill="#000000" font-family="sans-serif" font-size="14" lengthAdjust="spacing" text-decoration="underline" textLength="69" x="877" y="906.1426">CollectItem</text><ellipse cx="868" cy="919.5234" fill="none" rx="3" ry="3" style="stroke:#038048;stroke-width:1.0;"/><text fill="#000000" font-family="sans-serif" font-size="14" lengthAdjust="spacing" text-decoration="underline" textLength="69" x="877" y="923.752">LoseGame</text><ellipse cx="868" cy="937.1328" fill="none" rx="3" ry="3" style="stroke:#038048;stroke-width:1.0;"/><text fill="#000000" font-family="sans-serif" font-size="14" lengthAdjust="spacing" text-decoration="underline" textLength="65" x="877" y="941.3613">MainMenu</text><ellipse cx="868" cy="954.7422" fill="none" rx="3" ry="3" style="stroke:#038048;stroke-width:1.0;"/><text fill="#000000" font-family="sans-serif" font-size="14" lengthAdjust="spacing" text-decoration="underline" textLength="42" x="877" y="958.9707">Unlock</text><ellipse cx="868" cy="972.3516" fill="none" rx="3" ry="3" style="stroke:#038048;stroke-width:1.0;"/><text fill="#000000" font-family="sans-serif" font-size="14" lengthAdjust="spacing" text-decoration="underline" textLength="62" x="877" y="976.5801">WinGame</text><ellipse cx="868" cy="989.9609" fill="none" rx="3" ry="3" style="stroke:#038048;stroke-width:1.0;"/><text fill="#000000" font-family="sans-serif" font-size="14" lengthAdjust="spacing" text-decoration="underline" textLength="58" x="877" y="994.1895">WinLevel</text><line style="stroke:#181818;stroke-width:0.5;" x1="858" x2="966" y1="1001.2656" y2="1001.2656"/></g></a><!--MD5=[ef65c5b2094f9252bbb5ee8b648a3f04]
class nz.ac.vuw.ecs.swen225.gp22.renderer.SFXPlayer--><a href="SFXPlayer.html" target="_top" title="SFXPlayer.html" xlink:actuate="onRequest" xlink:href="SFXPlayer.html" xlink:show="new" xlink:title="SFXPlayer.html" xlink:type="simple"><g id="elem_nz.ac.vuw.ecs.swen225.gp22.renderer.SFXPlayer"><rect codeLine="53" fill="#F1F1F1" height="100.8281" id="nz.ac.vuw.ecs.swen225.gp22.renderer.SFXPlayer" rx="2.5" ry="2.5" style="stroke:#181818;stroke-width:0.5;" width="186" x="22" y="430.5"/><ellipse cx="77.75" cy="446.5" fill="#ADD1B2" rx="11" ry="11" style="stroke:#181818;stroke-width:1.0;"/><path d="M80.5156,442.375 Q80.6719,442.1563 80.8594,442.0469 Q81.0469,441.9375 81.2656,441.9375 Q81.6406,441.9375 81.875,442.2031 Q82.1094,442.4531 82.1094,443.0625 L82.1094,444.5156 Q82.1094,445.125 81.875,445.3906 Q81.6406,445.6563 81.2656,445.6563 Q80.9219,445.6563 80.7188,445.4531 Q80.5156,445.2656 80.4063,444.75 Q80.3594,444.3906 80.1719,444.2031 Q79.8438,443.8281 79.2344,443.6094 Q78.625,443.3906 78,443.3906 Q77.2344,443.3906 76.5938,443.7188 Q75.9688,444.0469 75.4688,444.7969 Q74.9844,445.5469 74.9844,446.5781 L74.9844,447.6719 Q74.9844,448.9063 75.875,449.7344 Q76.7656,450.5469 78.3594,450.5469 Q79.2969,450.5469 79.9531,450.2969 Q80.3438,450.1406 80.7656,449.7031 Q81.0313,449.4375 81.1719,449.3594 Q81.3281,449.2813 81.5313,449.2813 Q81.8594,449.2813 82.1094,449.5469 Q82.375,449.7969 82.375,450.1406 Q82.375,450.4844 82.0313,450.8906 Q81.5313,451.4688 80.7344,451.7969 Q79.6563,452.25 78.3594,452.25 Q76.8438,452.25 75.6406,451.625 Q74.6563,451.125 73.9688,450.0625 Q73.2813,448.9844 73.2813,447.7031 L73.2813,446.5469 Q73.2813,445.2188 73.8906,444.0781 Q74.5156,442.9219 75.6094,442.3125 Q76.7031,441.6875 77.9375,441.6875 Q78.6719,441.6875 79.3125,441.8594 Q79.9688,442.0156 80.5156,442.375 Z " fill="#000000"/><text fill="#000000" font-family="sans-serif" font-size="14" lengthAdjust="spacing" textLength="66" x="98.25" y="452.2285">SFXPlayer</text><line style="stroke:#181818;stroke-width:0.5;" x1="23" x2="207" y1="462.5" y2="462.5"/><line style="stroke:#181818;stroke-width:0.5;" x1="23" x2="207" y1="470.5" y2="470.5"/><ellipse cx="33" cy="484.8047" fill="#84BE84" rx="3" ry="3" style="stroke:#038048;stroke-width:1.0;"/><text fill="#000000" font-family="sans-serif" font-size="14" lengthAdjust="spacing" textLength="160" x="42" y="489.0332">playSound(SFX, int): void</text><ellipse cx="33" cy="502.4141" fill="#84BE84" rx="3" ry="3" style="stroke:#038048;stroke-width:1.0;"/><text fill="#000000" font-family="sans-serif" font-size="14" lengthAdjust="spacing" textLength="97" x="42" y="506.6426">stopSFX(): void</text><ellipse cx="33" cy="520.0234" fill="#84BE84" rx="3" ry="3" style="stroke:#038048;stroke-width:1.0;"/><text fill="#000000" font-family="sans-serif" font-size="14" lengthAdjust="spacing" textLength="151" x="42" y="524.252">update(LineEvent): void</text></g></a><!--MD5=[ebd80f6b5b9a3340a75d090700dbc8ab]
class nz.ac.vuw.ecs.swen225.gp22.renderer.SidePanel--><a href="SidePanel.html" target="_top" title="SidePanel.html" xlink:actuate="onRequest" xlink:href="SidePanel.html" xlink:show="new" xlink:title="SidePanel.html" xlink:type="simple"><g id="elem_nz.ac.vuw.ecs.swen225.gp22.renderer.SidePanel"><rect codeLine="59" fill="#F1F1F1" height="153.6563" id="nz.ac.vuw.ecs.swen225.gp22.renderer.SidePanel" rx="2.5" ry="2.5" style="stroke:#181818;stroke-width:0.5;" width="249" x="243.5" y="404"/><ellipse cx="331.75" cy="420" fill="#ADD1B2" rx="11" ry="11" style="stroke:#181818;stroke-width:1.0;"/><path d="M334.5156,415.875 Q334.6719,415.6563 334.8594,415.5469 Q335.0469,415.4375 335.2656,415.4375 Q335.6406,415.4375 335.875,415.7031 Q336.1094,415.9531 336.1094,416.5625 L336.1094,418.0156 Q336.1094,418.625 335.875,418.8906 Q335.6406,419.1563 335.2656,419.1563 Q334.9219,419.1563 334.7188,418.9531 Q334.5156,418.7656 334.4063,418.25 Q334.3594,417.8906 334.1719,417.7031 Q333.8438,417.3281 333.2344,417.1094 Q332.625,416.8906 332,416.8906 Q331.2344,416.8906 330.5938,417.2188 Q329.9688,417.5469 329.4688,418.2969 Q328.9844,419.0469 328.9844,420.0781 L328.9844,421.1719 Q328.9844,422.4063 329.875,423.2344 Q330.7656,424.0469 332.3594,424.0469 Q333.2969,424.0469 333.9531,423.7969 Q334.3438,423.6406 334.7656,423.2031 Q335.0313,422.9375 335.1719,422.8594 Q335.3281,422.7813 335.5313,422.7813 Q335.8594,422.7813 336.1094,423.0469 Q336.375,423.2969 336.375,423.6406 Q336.375,423.9844 336.0313,424.3906 Q335.5313,424.9688 334.7344,425.2969 Q333.6563,425.75 332.3594,425.75 Q330.8438,425.75 329.6406,425.125 Q328.6563,424.625 327.9688,423.5625 Q327.2813,422.4844 327.2813,421.2031 L327.2813,420.0469 Q327.2813,418.7188 327.8906,417.5781 Q328.5156,416.4219 329.6094,415.8125 Q330.7031,415.1875 331.9375,415.1875 Q332.6719,415.1875 333.3125,415.3594 Q333.9688,415.5156 334.5156,415.875 Z " fill="#000000"/><text fill="#000000" font-family="sans-serif" font-size="14" lengthAdjust="spacing" textLength="64" x="352.25" y="425.7285">SidePanel</text><line style="stroke:#181818;stroke-width:0.5;" x1="244.5" x2="491.5" y1="436" y2="436"/><line style="stroke:#181818;stroke-width:0.5;" x1="244.5" x2="491.5" y1="444" y2="444"/><ellipse cx="254.5" cy="458.3047" fill="#84BE84" rx="3" ry="3" style="stroke:#038048;stroke-width:1.0;"/><text fill="#000000" font-family="sans-serif" font-size="14" lengthAdjust="spacing" textLength="112" x="263.5" y="462.5332">SidePanel(int, int)</text><ellipse cx="254.5" cy="475.9141" fill="#84BE84" rx="3" ry="3" style="stroke:#038048;stroke-width:1.0;"/><text fill="#000000" font-family="sans-serif" font-size="14" lengthAdjust="spacing" textLength="207" x="263.5" y="480.1426">renderSidePanel(Graphics): void</text><ellipse cx="254.5" cy="493.5234" fill="#84BE84" rx="3" ry="3" style="stroke:#038048;stroke-width:1.0;"/><text fill="#000000" font-family="sans-serif" font-size="14" lengthAdjust="spacing" textLength="109" x="263.5" y="497.752">setTime(int): void</text><ellipse cx="254.5" cy="511.1328" fill="#84BE84" rx="3" ry="3" style="stroke:#038048;stroke-width:1.0;"/><text fill="#000000" font-family="sans-serif" font-size="14" lengthAdjust="spacing" textLength="168" x="263.5" y="515.3613">setLabelFont(JLabel): void</text><ellipse cx="254.5" cy="528.7422" fill="#84BE84" rx="3" ry="3" style="stroke:#038048;stroke-width:1.0;"/><text fill="#000000" font-family="sans-serif" font-size="14" lengthAdjust="spacing" textLength="205" x="263.5" y="532.9707">paintComponent(Graphics): void</text><ellipse cx="254.5" cy="546.3516" fill="#84BE84" rx="3" ry="3" style="stroke:#038048;stroke-width:1.0;"/><text fill="#000000" font-family="sans-serif" font-size="14" lengthAdjust="spacing" textLength="223" x="263.5" y="550.5801">actionPerformed(ActionEvent): void</text></g></a><!--MD5=[fa72cde6251f483207e0df2c64e0c31f]
class nz.ac.vuw.ecs.swen225.gp22.renderer.Viewport--><a href="Viewport.html" target="_top" title="Viewport.html" xlink:actuate="onRequest" xlink:href="Viewport.html" xlink:show="new" xlink:title="Viewport.html" xlink:type="simple"><g id="elem_nz.ac.vuw.ecs.swen225.gp22.renderer.Viewport"><rect codeLine="68" fill="#F1F1F1" height="224.0938" id="nz.ac.vuw.ecs.swen225.gp22.renderer.Viewport" rx="2.5" ry="2.5" style="stroke:#181818;stroke-width:0.5;" width="269" x="527.5" y="369"/><ellipse cx="630.75" cy="385" fill="#ADD1B2" rx="11" ry="11" style="stroke:#181818;stroke-width:1.0;"/><path d="M633.5156,380.875 Q633.6719,380.6563 633.8594,380.5469 Q634.0469,380.4375 634.2656,380.4375 Q634.6406,380.4375 634.875,380.7031 Q635.1094,380.9531 635.1094,381.5625 L635.1094,383.0156 Q635.1094,383.625 634.875,383.8906 Q634.6406,384.1563 634.2656,384.1563 Q633.9219,384.1563 633.7188,383.9531 Q633.5156,383.7656 633.4063,383.25 Q633.3594,382.8906 633.1719,382.7031 Q632.8438,382.3281 632.2344,382.1094 Q631.625,381.8906 631,381.8906 Q630.2344,381.8906 629.5938,382.2188 Q628.9688,382.5469 628.4688,383.2969 Q627.9844,384.0469 627.9844,385.0781 L627.9844,386.1719 Q627.9844,387.4063 628.875,388.2344 Q629.7656,389.0469 631.3594,389.0469 Q632.2969,389.0469 632.9531,388.7969 Q633.3438,388.6406 633.7656,388.2031 Q634.0313,387.9375 634.1719,387.8594 Q634.3281,387.7813 634.5313,387.7813 Q634.8594,387.7813 635.1094,388.0469 Q635.375,388.2969 635.375,388.6406 Q635.375,388.9844 635.0313,389.3906 Q634.5313,389.9688 633.7344,390.2969 Q632.6563,390.75 631.3594,390.75 Q629.8438,390.75 628.6406,390.125 Q627.6563,389.625 626.9688,388.5625 Q626.2813,387.4844 626.2813,386.2031 L626.2813,385.0469 Q626.2813,383.7188 626.8906,382.5781 Q627.5156,381.4219 628.6094,380.8125 Q629.7031,380.1875 630.9375,380.1875 Q631.6719,380.1875 632.3125,380.3594 Q632.9688,380.5156 633.5156,380.875 Z " fill="#000000"/><text fill="#000000" font-family="sans-serif" font-size="14" lengthAdjust="spacing" textLength="54" x="651.25" y="390.7285">Viewport</text><line style="stroke:#181818;stroke-width:0.5;" x1="528.5" x2="795.5" y1="401" y2="401"/><line style="stroke:#181818;stroke-width:0.5;" x1="528.5" x2="795.5" y1="409" y2="409"/><ellipse cx="538.5" cy="423.3047" fill="#84BE84" rx="3" ry="3" style="stroke:#038048;stroke-width:1.0;"/><text fill="#000000" font-family="sans-serif" font-size="14" lengthAdjust="spacing" textLength="132" x="547.5" y="427.5332">paint(Graphics): void</text><ellipse cx="538.5" cy="440.9141" fill="#84BE84" rx="3" ry="3" style="stroke:#038048;stroke-width:1.0;"/><text fill="#000000" font-family="sans-serif" font-size="14" lengthAdjust="spacing" textLength="223" x="547.5" y="445.1426">actionPerformed(ActionEvent): void</text><ellipse cx="538.5" cy="458.5234" fill="#84BE84" rx="3" ry="3" style="stroke:#038048;stroke-width:1.0;"/><text fill="#000000" font-family="sans-serif" font-size="14" lengthAdjust="spacing" textLength="177" x="547.5" y="462.752">getFocusArea(int, int): Point</text><ellipse cx="538.5" cy="476.1328" fill="#84BE84" rx="3" ry="3" style="stroke:#038048;stroke-width:1.0;"/><text fill="#000000" font-family="sans-serif" font-size="14" lengthAdjust="spacing" textLength="176" x="547.5" y="480.3613">setCurrentMaze(Point): void</text><ellipse cx="538.5" cy="493.7422" fill="#84BE84" rx="3" ry="3" style="stroke:#038048;stroke-width:1.0;"/><text fill="#000000" font-family="sans-serif" font-size="14" lengthAdjust="spacing" textLength="198" x="547.5" y="497.9707">getTileImg(Tile): BufferedImage</text><ellipse cx="538.5" cy="511.3516" fill="#84BE84" rx="3" ry="3" style="stroke:#038048;stroke-width:1.0;"/><text fill="#000000" font-family="sans-serif" font-size="14" lengthAdjust="spacing" textLength="243" x="547.5" y="515.5801">getEntityImg(Direction): BufferedImage</text><ellipse cx="538.5" cy="528.9609" fill="#84BE84" rx="3" ry="3" style="stroke:#038048;stroke-width:1.0;"/><text fill="#000000" font-family="sans-serif" font-size="14" lengthAdjust="spacing" textLength="211" x="547.5" y="533.1895">setAction(List&lt;ActionType&gt;): void</text><ellipse cx="538.5" cy="546.5703" fill="#84BE84" rx="3" ry="3" style="stroke:#038048;stroke-width:1.0;"/><text fill="#000000" font-family="sans-serif" font-size="14" lengthAdjust="spacing" textLength="191" x="547.5" y="550.7988">checkAction(ActionType): void</text><ellipse cx="538.5" cy="564.1797" fill="#84BE84" rx="3" ry="3" style="stroke:#038048;stroke-width:1.0;"/><text fill="#000000" font-family="sans-serif" font-size="14" lengthAdjust="spacing" textLength="156" x="547.5" y="568.4082">playSFX(String, int): void</text><ellipse cx="538.5" cy="581.7891" fill="#84BE84" rx="3" ry="3" style="stroke:#038048;stroke-width:1.0;"/><text fill="#000000" font-family="sans-serif" font-size="14" lengthAdjust="spacing" textLength="112" x="547.5" y="586.0176">stopSound(): void</text></g></a><!--MD5=[e46b5534ef4dffd37a684082811fb8c6]
class javax.sound.sampled.LineListener--><g id="elem_javax.sound.sampled.LineListener"><rect codeLine="90" fill="#F1F1F1" height="65.6094" id="javax.sound.sampled.LineListener" rx="2.5" ry="2.5" style="stroke:#181818;stroke-width:0.5;" width="175" x="27.5" y="42"/><ellipse cx="71.75" cy="58" fill="#B4A7E5" rx="11" ry="11" style="stroke:#181818;stroke-width:1.0;"/><path d="M72.7031,54.6406 L72.7031,61.2969 L74.4219,61.2969 Q75.0313,61.2969 75.2969,61.5313 Q75.5625,61.7656 75.5625,62.1563 Q75.5625,62.5313 75.2969,62.7656 Q75.0313,63 74.4219,63 L69.2813,63 Q68.6719,63 68.4063,62.7656 Q68.1406,62.5313 68.1406,62.1406 Q68.1406,61.7656 68.4063,61.5313 Q68.6719,61.2969 69.2813,61.2969 L71,61.2969 L71,54.6406 L69.2813,54.6406 Q68.6719,54.6406 68.4063,54.4063 Q68.1406,54.1719 68.1406,53.7813 Q68.1406,53.4063 68.4063,53.1719 Q68.6719,52.9375 69.2813,52.9375 L74.4219,52.9375 Q75.0313,52.9375 75.2969,53.1719 Q75.5625,53.4063 75.5625,53.7813 Q75.5625,54.1719 75.2969,54.4063 Q75.0313,54.6406 74.4219,54.6406 L72.7031,54.6406 Z " fill="#000000"/><text fill="#000000" font-family="sans-serif" font-size="14" font-style="italic" lengthAdjust="spacing" textLength="78" x="92.25" y="63.7285">LineListener</text><line style="stroke:#181818;stroke-width:0.5;" x1="28.5" x2="201.5" y1="74" y2="74"/><line style="stroke:#181818;stroke-width:0.5;" x1="28.5" x2="201.5" y1="82" y2="82"/><ellipse cx="38.5" cy="96.3047" fill="#84BE84" rx="3" ry="3" style="stroke:#038048;stroke-width:1.0;"/><text fill="#000000" font-family="sans-serif" font-size="14" font-style="italic" lengthAdjust="spacing" textLength="149" x="47.5" y="100.5332">update(LineEvent): void</text></g><!--MD5=[56a185cb33bdc7c23303e5865f20a19b]
class javax.swing.JPanel--><g id="elem_javax.swing.JPanel"><rect codeLine="96" fill="#F1F1F1" height="48" id="javax.swing.JPanel" rx="2.5" ry="2.5" style="stroke:#181818;stroke-width:0.5;" width="74" x="350" y="51"/><ellipse cx="365" cy="67" fill="#ADD1B2" rx="11" ry="11" style="stroke:#181818;stroke-width:1.0;"/><path d="M367.7656,62.875 Q367.9219,62.6563 368.1094,62.5469 Q368.2969,62.4375 368.5156,62.4375 Q368.8906,62.4375 369.125,62.7031 Q369.3594,62.9531 369.3594,63.5625 L369.3594,65.0156 Q369.3594,65.625 369.125,65.8906 Q368.8906,66.1563 368.5156,66.1563 Q368.1719,66.1563 367.9688,65.9531 Q367.7656,65.7656 367.6563,65.25 Q367.6094,64.8906 367.4219,64.7031 Q367.0938,64.3281 366.4844,64.1094 Q365.875,63.8906 365.25,63.8906 Q364.4844,63.8906 363.8438,64.2188 Q363.2188,64.5469 362.7188,65.2969 Q362.2344,66.0469 362.2344,67.0781 L362.2344,68.1719 Q362.2344,69.4063 363.125,70.2344 Q364.0156,71.0469 365.6094,71.0469 Q366.5469,71.0469 367.2031,70.7969 Q367.5938,70.6406 368.0156,70.2031 Q368.2813,69.9375 368.4219,69.8594 Q368.5781,69.7813 368.7813,69.7813 Q369.1094,69.7813 369.3594,70.0469 Q369.625,70.2969 369.625,70.6406 Q369.625,70.9844 369.2813,71.3906 Q368.7813,71.9688 367.9844,72.2969 Q366.9063,72.75 365.6094,72.75 Q364.0938,72.75 362.8906,72.125 Q361.9063,71.625 361.2188,70.5625 Q360.5313,69.4844 360.5313,68.2031 L360.5313,67.0469 Q360.5313,65.7188 361.1406,64.5781 Q361.7656,63.4219 362.8594,62.8125 Q363.9531,62.1875 365.1875,62.1875 Q365.9219,62.1875 366.5625,62.3594 Q367.2188,62.5156 367.7656,62.875 Z " fill="#000000"/><text fill="#000000" font-family="sans-serif" font-size="14" lengthAdjust="spacing" textLength="42" x="379" y="72.7285">JPanel</text><line style="stroke:#181818;stroke-width:0.5;" x1="351" x2="423" y1="83" y2="83"/><line style="stroke:#181818;stroke-width:0.5;" x1="351" x2="423" y1="91" y2="91"/></g><!--MD5=[6631281fcee7fc541b441b6c950a0fa0]
class java.awt.event.ActionListener--><g id="elem_java.awt.event.ActionListener"><rect codeLine="101" fill="#F1F1F1" height="65.6094" id="java.awt.event.ActionListener" rx="2.5" ry="2.5" style="stroke:#181818;stroke-width:0.5;" width="247" x="518.5" y="42"/><ellipse cx="592.75" cy="58" fill="#B4A7E5" rx="11" ry="11" style="stroke:#181818;stroke-width:1.0;"/><path d="M593.7031,54.6406 L593.7031,61.2969 L595.4219,61.2969 Q596.0313,61.2969 596.2969,61.5313 Q596.5625,61.7656 596.5625,62.1563 Q596.5625,62.5313 596.2969,62.7656 Q596.0313,63 595.4219,63 L590.2813,63 Q589.6719,63 589.4063,62.7656 Q589.1406,62.5313 589.1406,62.1406 Q589.1406,61.7656 589.4063,61.5313 Q589.6719,61.2969 590.2813,61.2969 L592,61.2969 L592,54.6406 L590.2813,54.6406 Q589.6719,54.6406 589.4063,54.4063 Q589.1406,54.1719 589.1406,53.7813 Q589.1406,53.4063 589.4063,53.1719 Q589.6719,52.9375 590.2813,52.9375 L595.4219,52.9375 Q596.0313,52.9375 596.2969,53.1719 Q596.5625,53.4063 596.5625,53.7813 Q596.5625,54.1719 596.2969,54.4063 Q596.0313,54.6406 595.4219,54.6406 L593.7031,54.6406 Z " fill="#000000"/><text fill="#000000" font-family="sans-serif" font-size="14" font-style="italic" lengthAdjust="spacing" textLength="90" x="613.25" y="63.7285">ActionListener</text><line style="stroke:#181818;stroke-width:0.5;" x1="519.5" x2="764.5" y1="74" y2="74"/><line style="stroke:#181818;stroke-width:0.5;" x1="519.5" x2="764.5" y1="82" y2="82"/><ellipse cx="529.5" cy="96.3047" fill="#84BE84" rx="3" ry="3" style="stroke:#038048;stroke-width:1.0;"/><text fill="#000000" font-family="sans-serif" font-size="14" font-style="italic" lengthAdjust="spacing" textLength="221" x="538.5" y="100.5332">actionPerformed(ActionEvent): void</text></g><!--MD5=[62351bcb5da6f914cf6171c076bdfb43]
reverse link nz.ac.vuw.ecs.swen225.gp22.renderer.SFX to nz.ac.vuw.ecs.swen225.gp22.renderer.SFX.Sounds--><g id="link_nz.ac.vuw.ecs.swen225.gp22.renderer.SFX_nz.ac.vuw.ecs.swen225.gp22.renderer.SFX.Sounds"><path codeLine="81" d="M912,546.83 C912,623.88 912,752.67 912,837.6 " fill="none" id="nz.ac.vuw.ecs.swen225.gp22.renderer.SFX-backto-nz.ac.vuw.ecs.swen225.gp22.renderer.SFX.Sounds" style="stroke:#181818;stroke-width:1.0;"/><ellipse cx="912" cy="539.67" fill="#FFFFFF" rx="8" ry="8" style="stroke:#181818;stroke-width:1.0;"/><line style="stroke:#181818;stroke-width:1.0;" x1="912" x2="912" y1="547.67" y2="531.67"/><line style="stroke:#181818;stroke-width:1.0;" x1="904" x2="920" y1="539.67" y2="539.67"/></g><!--MD5=[293a3ce7f1622c403ffc4468fe81cab9]
reverse link javax.sound.sampled.LineListener to nz.ac.vuw.ecs.swen225.gp22.renderer.SFXPlayer--><g id="link_javax.sound.sampled.LineListener_nz.ac.vuw.ecs.swen225.gp22.renderer.SFXPlayer"><path codeLine="82" d="M115,128.21 C115,206.57 115,353.59 115,430.4 " fill="none" id="javax.sound.sampled.LineListener-backto-nz.ac.vuw.ecs.swen225.gp22.renderer.SFXPlayer" style="stroke:#181818;stroke-width:1.0;stroke-dasharray:7.0,7.0;"/><polygon fill="none" points="108,128.04,115,108.04,122,128.04,108,128.04" style="stroke:#181818;stroke-width:1.0;"/></g><!--MD5=[739a93b42f641e903ab3d7bce97e3d34]
reverse link javax.swing.JPanel to nz.ac.vuw.ecs.swen225.gp22.renderer.SidePanel--><g id="link_javax.swing.JPanel_nz.ac.vuw.ecs.swen225.gp22.renderer.SidePanel"><path codeLine="83" d="M384.97,119.16 C381.78,187.02 375.54,319.57 371.59,403.75 " fill="none" id="javax.swing.JPanel-backto-nz.ac.vuw.ecs.swen225.gp22.renderer.SidePanel" style="stroke:#181818;stroke-width:1.0;"/><polygon fill="none" points="377.98,118.82,385.91,99.17,391.96,119.48,377.98,118.82" style="stroke:#181818;stroke-width:1.0;"/></g><!--MD5=[6c60bc1427a4211bfb9e8192ba5c38b1]
reverse link java.awt.event.ActionListener to nz.ac.vuw.ecs.swen225.gp22.renderer.SidePanel--><g id="link_java.awt.event.ActionListener_nz.ac.vuw.ecs.swen225.gp22.renderer.SidePanel"><path codeLine="84" d="M535.63,118.61 C526.3,124.91 517.55,132.02 510,140 C439.68,214.36 401.79,328.59 383.26,403.79 " fill="none" id="java.awt.event.ActionListener-backto-nz.ac.vuw.ecs.swen225.gp22.renderer.SidePanel" style="stroke:#181818;stroke-width:1.0;stroke-dasharray:7.0,7.0;"/><polygon fill="none" points="532.2,112.51,552.93,108.12,539.46,124.48,532.2,112.51" style="stroke:#181818;stroke-width:1.0;"/></g><!--MD5=[e68ed371e475302317ec86297666a0ec]
reverse link javax.swing.JPanel to nz.ac.vuw.ecs.swen225.gp22.renderer.Viewport--><g id="link_javax.swing.JPanel_nz.ac.vuw.ecs.swen225.gp22.renderer.Viewport"><path codeLine="85" d="M442.84,95.53 C465.97,105.85 491.62,120.5 510,140 C570.53,204.23 609.72,296.63 633.13,368.9 " fill="none" id="javax.swing.JPanel-backto-nz.ac.vuw.ecs.swen225.gp22.renderer.Viewport" style="stroke:#181818;stroke-width:1.0;"/><polygon fill="none" points="440.05,101.95,424.22,87.86,445.38,89.01,440.05,101.95" style="stroke:#181818;stroke-width:1.0;"/></g><!--MD5=[c7110143acce2b7071751601c3ade72e]
reverse link java.awt.event.ActionListener to nz.ac.vuw.ecs.swen225.gp22.renderer.Viewport--><g id="link_java.awt.event.ActionListener_nz.ac.vuw.ecs.swen225.gp22.renderer.Viewport"><path codeLine="86" d="M644.59,128.41 C647.6,189.03 652.62,290.56 656.5,368.97 " fill="none" id="java.awt.event.ActionListener-backto-nz.ac.vuw.ecs.swen225.gp22.renderer.Viewport" style="stroke:#181818;stroke-width:1.0;stroke-dasharray:7.0,7.0;"/><polygon fill="none" points="637.58,128.36,643.59,108.04,651.57,127.67,637.58,128.36" style="stroke:#181818;stroke-width:1.0;"/></g><rect fill="none" height="12.5781" style="stroke:none;stroke-width:1.0;" width="184" x="508.5" y="1031"/><text fill="#888888" font-family="sans-serif" font-size="10" lengthAdjust="spacing" textLength="184" x="508.5" y="1041.3809">UMLDoclet 2.0.19, PlantUML 1.2022.8</text><!--MD5=[c72a37e83069ef954ef488a8ce838252]
@startuml
    namespace nz.ac.vuw.ecs.swen225.gp22.renderer {

        enum Img [[Img.html]] {
            {static} +Title
            {static} +BlueKey
            {static} +BlueLockedDoor
            {static} +GreenKey
            {static} +GreenLockedDoor
            {static} +RedKey
            {static} +RedLockedDoor
            {static} +YellowKey
            {static} +YellowLockedDoor
            {static} +FreeTile
            {static} +Exit
            {static} +LockedExit
            {static} +InfoField
            {static} +Level1Info
            {static} +PlayerDown
            {static} +PlayerLeft
            {static} +PlayerRight
            {static} +PlayerUp
            {static} +Treasure
            {static} +Wall
            {static} +BlueKeyNB
            {static} +GreenKeyNB
            {static} +RedKeyNB
            {static} +YellowKeyNB
            {static} +BouncyPadDown
            {static} +BouncyPadLeft
            {static} +BouncyPadRight
            {static} +BouncyPadUp
            {static} +Level2Info
            {static} +MilkPuddle
            +image: BufferedImage
        }

        class SFX [[SFX.html]] {
            +SFX(String)
            +getClip(): Clip
            +getClipName(): String
        }

        enum nz.ac.vuw.ecs.swen225.gp22.renderer.SFX.Sounds [[SFX.Sounds.html]] {
            {static} +Background
            {static} +CollectItem
            {static} +LoseGame
            {static} +MainMenu
            {static} +Unlock
            {static} +WinGame
            {static} +WinLevel
        }

        class SFXPlayer [[SFXPlayer.html]] {
            +playSound(SFX, int): void
            +stopSFX(): void
            +update(LineEvent): void
        }

        class SidePanel [[SidePanel.html]] {
            +SidePanel(int, int)
            +renderSidePanel(Graphics): void
            +setTime(int): void
            +setLabelFont(JLabel): void
            +paintComponent(Graphics): void
            +actionPerformed(ActionEvent): void
        }

        class Viewport [[Viewport.html]] {
            +paint(Graphics): void
            +actionPerformed(ActionEvent): void
            +getFocusArea(int, int): Point
            +setCurrentMaze(Point): void
            +getTileImg(Tile): BufferedImage
            +getEntityImg(Direction): BufferedImage
            +setAction(List<ActionType>): void
            +checkAction(ActionType): void
            +playSFX(String, int): void
            +stopSound(): void
        }

        SFX +- - nz.ac.vuw.ecs.swen225.gp22.renderer.SFX.Sounds
        javax.sound.sampled.LineListener <|.. SFXPlayer
        javax.swing.JPanel <|- - SidePanel
        java.awt.event.ActionListener <|.. SidePanel
        javax.swing.JPanel <|- - Viewport
        java.awt.event.ActionListener <|.. Viewport
    }

    namespace javax.sound.sampled {
        interface LineListener {
            {abstract} +update(LineEvent): void
        }
    }

    namespace javax.swing {
        class JPanel {
        }
    }

    namespace java.awt.event {
        interface ActionListener {
            {abstract} +actionPerformed(ActionEvent): void
        }
    }

    center footer UMLDoclet 2.0.19, PlantUML 1.2022.8
@enduml

PlantUML version 1.2022.8(Sun Sep 25 22:00:33 NZDT 2022)
(APACHE source distribution)
Java Runtime: Java(TM) SE Runtime Environment
JVM: Java HotSpot(TM) 64-Bit Server VM
Default Encoding: Cp1252
Language: en
Country: NZ
--></g></svg>